<svg width="21" height="21" viewBox="0 0 21 21" fill="none" xmlns="http://www.w3.org/2000/svg">
<path d="M6.89379 6.18676C6.69853 6.38202 6.69853 6.6986 6.89379 6.89387C7.08906 7.08913 7.40564 7.08913 7.6009 6.89387L6.89379 6.18676ZM8.30801 4.77255L6.89379 6.18676L7.6009 6.89387L9.01511 5.47965L8.30801 4.77255Z" fill="white"/>
<path d="M8.97357 8.26647C8.7783 8.46173 8.7783 8.77832 8.97357 8.97358C9.16883 9.16884 9.48541 9.16884 9.68067 8.97358L8.97357 8.26647ZM10.3878 6.85226L8.97357 8.26647L9.68067 8.97358L11.0949 7.55936L10.3878 6.85226Z" fill="white"/>
<path d="M11.0533 10.3462C10.858 10.5414 10.858 10.858 11.0533 11.0533C11.2485 11.2486 11.5651 11.2486 11.7604 11.0533L11.0533 10.3462ZM12.4675 8.93197L11.0533 10.3462L11.7604 11.0533L13.1746 9.63908L12.4675 8.93197Z" fill="white"/>
<path d="M13.133 12.4259C12.9377 12.6212 12.9377 12.9377 13.133 13.133C13.3283 13.3283 13.6448 13.3283 13.8401 13.133L13.133 12.4259ZM14.5472 11.0117L13.133 12.4259L13.8401 13.133L15.2543 11.7188L14.5472 11.0117Z" fill="white"/>
<path d="M16.9805 13.4449L15.5663 14.8592" stroke="white" stroke-miterlimit="10" stroke-linecap="round"/>
<rect x="5.53552" y="2" width="20" height="5" transform="rotate(45 5.53552 2)" stroke="white" stroke-width="1.5" stroke-miterlimit="10"/>
</svg>
