<svg width="24" height="24" viewBox="0 0 24 24" fill="none" xmlns="http://www.w3.org/2000/svg">
<path d="M3.07568 19.4578L19.0415 19.4578" stroke="white" stroke-width="2" stroke-miterlimit="10" stroke-linecap="round"/>
<path d="M19.8247 19.5048L8.52061 6.12906" stroke="white" stroke-width="2" stroke-miterlimit="10" stroke-linecap="round" stroke-dasharray="1 4"/>
<path d="M8.44971 6.07575L2.99783 19.5095" stroke="white" stroke-width="2" stroke-miterlimit="10" stroke-linecap="round"/>
<path d="M4.54849 21.0608C5.43379 20.2474 5.49209 18.8704 4.67871 17.9851C3.86533 17.0998 2.48828 17.0415 1.60298 17.8548C0.717678 18.6682 0.659374 20.0453 1.47275 20.9306C2.28613 21.8159 3.66319 21.8742 4.54849 21.0608Z" fill="white"/>
<path d="M9.92251 7.67872C10.8078 6.86534 10.8661 5.48829 10.0527 4.60299C9.23936 3.71769 7.8623 3.65938 6.977 4.47276C6.0917 5.28614 6.0334 6.66319 6.84678 7.54849C7.66016 8.4338 9.03721 8.4921 9.92251 7.67872Z" fill="white"/>
<path d="M21.3971 21.0608C22.2824 20.2474 22.3407 18.8704 21.5273 17.9851C20.714 17.0998 19.3369 17.0415 18.4516 17.8548C17.5663 18.6682 17.508 20.0453 18.3214 20.9306C19.1348 21.8159 20.5118 21.8742 21.3971 21.0608Z" fill="white"/>
</svg>
