<svg width="18" height="15" viewBox="0 0 18 15" fill="none" xmlns="http://www.w3.org/2000/svg">
<path d="M2.69953 4.39903C1.76092 4.39903 1.00002 3.63813 1.00002 2.69951C1.00002 1.7609 1.76092 1 2.69953 1C3.63815 1 4.39905 1.7609 4.39905 2.69951C4.39905 3.63813 3.63815 4.39903 2.69953 4.39903Z" stroke="#ffffff" stroke-width="2" stroke-miterlimit="10"/>
<path d="M2.69959 4.95987V10.6278C2.69959 12.2678 4.03371 13.6019 5.67374 13.6019C7.31377 13.6019 8.64789 12.2678 8.64789 10.6278V4.80691C8.64789 3.16688 9.98201 1.83276 11.622 1.83276C13.2621 1.83276 14.5962 3.16688 14.5962 4.80691V10.2029" stroke="#ffffff" stroke-width="1.5" stroke-miterlimit="10"/>
<path d="M12.1924 8.948L14.5959 11.3515" stroke="#ffffff" stroke-width="1.5" stroke-miterlimit="10" stroke-linecap="round" stroke-linejoin="round"/>
<path d="M14.5966 11.3514L17 8.94796" stroke="#ffffff" stroke-width="1.5" stroke-miterlimit="10" stroke-linecap="round" stroke-linejoin="round"/>
</svg>