<svg width="24" height="21" viewBox="0 0 24 21" fill="none" xmlns="http://www.w3.org/2000/svg">
<g clip-path="url(#clip0_1174_22921)">
<path d="M18.97 10.18C18.61 10.18 18.33 10.03 18.11 9.74C17.89 9.45 17.78 9.02 17.78 8.47C17.78 7.87 17.88 7.31 18.09 6.77C18.29 6.24 18.57 5.76 18.92 5.35C19.27 4.93 19.65 4.61 20.08 4.38C20.51 4.15 20.95 4.03 21.4 4.03C21.63 4.03 21.84 4.06 22.04 4.11C22.24 4.17 22.42 4.24 22.57 4.34L23.15 4.08H23.44L22.66 8.45C22.59 8.88 22.66 9.1 22.88 9.1C23.01 9.1 23.15 9.03 23.31 8.88C23.47 8.73 23.62 8.49 23.78 8.15L23.99 8.23C23.5 9.54 22.89 10.19 22.13 10.19C21.76 10.19 21.49 10.06 21.32 9.8C21.15 9.54 21.1 9.17 21.17 8.68H21.14C20.78 9.18 20.43 9.56 20.09 9.81C19.75 10.06 19.38 10.19 18.98 10.19L18.97 10.18ZM19.28 7.81C19.28 8.24 19.32 8.56 19.41 8.77C19.5 8.98 19.66 9.08 19.9 9.08C20.14 9.08 20.38 8.97 20.61 8.75C20.84 8.53 21.06 8.28 21.25 8L21.78 5C21.67 4.86 21.55 4.75 21.42 4.68C21.29 4.61 21.13 4.57 20.95 4.57C20.61 4.57 20.32 4.72 20.07 5.03C19.82 5.34 19.62 5.74 19.49 6.23C19.35 6.72 19.28 7.25 19.28 7.8V7.81Z" fill="white"/>
<path d="M20.9 15.72H15.38C15.31 12.48 13.87 9.57 11.61 7.55L17.06 1.32L15.55 0L9.99999 6.35C8.26999 5.28 6.24999 4.66 4.07999 4.66H3.07999V6.66H4.07999C5.74999 6.66 7.30999 7.11 8.66999 7.88L5.05999 12.01C4.74999 11.93 4.41999 11.88 4.07999 11.88C1.82999 11.88 -0.0100098 13.71 -0.0100098 15.97C-0.0100098 18.23 1.81999 20.06 4.07999 20.06C5.69999 20.06 7.09999 19.1 7.75999 17.73H20.9V15.73V15.72ZM10.3 9.05C12.14 10.7 13.31 13.07 13.38 15.71H8.14999C8.07999 14.63 7.60999 13.67 6.86999 12.98L10.31 9.05H10.3ZM4.08999 18.05C2.93999 18.05 1.99999 17.11 1.99999 15.96C1.99999 14.81 2.93999 13.87 4.08999 13.87C5.23999 13.87 6.17999 14.81 6.17999 15.96C6.17999 17.11 5.23999 18.05 4.08999 18.05Z" fill="white"/>
</g>
<defs>
<clipPath id="clip0_1174_22921">
<rect width="23.98" height="20.05" fill="white"/>
</clipPath>
</defs>
</svg>

