<svg width="23" height="23" viewBox="0 0 23 23" fill="none" xmlns="http://www.w3.org/2000/svg">
<g clip-path="url(#clip0_1174_22914)">
<path d="M9.86001 17.4C9.86001 17.12 9.88001 16.85 9.90001 16.58L7.40002 15.33V2.43L12.09 4.78V11.48C12.67 10.82 13.34 10.25 14.08 9.78V4.72L18 3.04V3.23H17.99V8.45C18.27 8.42 18.56 8.41 18.85 8.41C19.24 8.41 19.62 8.44 20 8.49V0.76C20 0.68 19.98 0.6 19.95 0.52C19.91 0.45 19.85 0.38 19.78 0.34C19.71 0.3 19.63 0.27 19.55 0.26C19.47 0.26 19.38 0.26 19.31 0.3L13.01 3L7.01002 0L0.0100155 3V19.61C1.54544e-05 19.69 0.0100155 19.77 0.0600155 19.85C0.100015 19.92 0.160015 19.99 0.220015 20.03C0.280015 20.07 0.370015 20.1 0.450015 20.11C0.530015 20.11 0.620015 20.11 0.690015 20.07L6.99002 17.37L9.98001 18.87C9.90001 18.39 9.85002 17.91 9.85002 17.41L9.86001 17.4ZM5.41002 15.87L2.00002 17.33V17.14H2.01002V4.32L5.41002 2.86V15.87Z" fill="white"/>
<path fill-rule="evenodd" clip-rule="evenodd" d="M19.83 20.4V22.4H17.83V20.4H19.83ZM19.29 12.43C21.12 12.67 22.44 14.29 22.32 16.13C22.2 17.97 20.67 19.4 18.83 19.4H17.83V17.4H18.83C19.62 17.4 20.27 16.79 20.33 16C20.38 15.21 19.81 14.52 19.03 14.41C18.25 14.31 17.52 14.83 17.36 15.6L15.4 15.21C15.76 13.4 17.46 12.18 19.29 12.43Z" fill="white"/>
</g>
<defs>
<clipPath id="clip0_1174_22914">
<rect width="22.33" height="22.4" fill="white"/>
</clipPath>
</defs>
</svg>