<svg width="24" height="24" viewBox="0 0 24 24" fill="none" xmlns="http://www.w3.org/2000/svg">
<path d="M5.41102 10.5708C5.39582 10.5708 5.38062 10.5708 5.36542 10.5708L4.52945 10.3236C4.46865 10.3082 4.42305 10.2464 4.42305 10.1691V9.02575C4.42305 8.9794 4.45345 8.93305 4.48385 8.90215C4.52945 8.87125 4.57505 8.87125 4.62065 8.8867L5.45662 9.19571C5.51742 9.21116 5.56302 9.27296 5.56302 9.33476V10.4163C5.56302 10.4627 5.54782 10.509 5.50222 10.5399C5.47182 10.5554 5.44142 10.5708 5.41102 10.5708ZM4.72704 10.0455L5.25903 10.2V9.42747L4.72704 9.22661V10.0455Z" fill="#000091"/>
<path d="M5.41102 12.7339C5.39582 12.7339 5.39582 12.7339 5.38062 12.7339L4.54465 12.5485C4.46865 12.533 4.42305 12.4712 4.42305 12.394V11.2506C4.42305 11.2043 4.43825 11.1579 4.48385 11.127C4.51425 11.0961 4.57505 11.0807 4.62065 11.0961L5.45662 11.3124C5.51742 11.3279 5.57822 11.3897 5.57822 11.467V12.5794C5.57822 12.6257 5.56302 12.6721 5.51742 12.703C5.47182 12.7185 5.44142 12.7339 5.41102 12.7339ZM4.72704 12.2704L5.25903 12.394V11.5906L4.72704 11.4515V12.2704Z" fill="#000091"/>
<path d="M6.79417 13.0584C6.77897 13.0584 6.76377 13.0584 6.76377 13.0584L5.9278 12.8575C5.85181 12.8421 5.80621 12.7803 5.80621 12.703V11.5751C5.80621 11.5288 5.82141 11.4824 5.867 11.4515C5.9126 11.4206 5.9582 11.4052 6.0038 11.4206L6.83977 11.6369C6.90057 11.6524 6.96137 11.7142 6.96137 11.7914V12.9039C6.96137 12.9502 6.94617 12.9966 6.90057 13.0275C6.85497 13.0429 6.82457 13.0584 6.79417 13.0584ZM6.1102 12.5794L6.64218 12.703V11.8996L6.1102 11.7605V12.5794Z" fill="#000091"/>
<path d="M8.72451 12.5639C8.70931 12.5639 8.69411 12.5639 8.67891 12.5639L7.69094 12.224C7.63015 12.2086 7.59975 12.1468 7.59975 12.1004V11.3897C7.59975 11.3433 7.61495 11.297 7.66055 11.2815C7.69094 11.2506 7.73654 11.2506 7.78214 11.2661L8.77011 11.6369C8.81571 11.6524 8.86131 11.7142 8.86131 11.7605V12.4403C8.86131 12.4867 8.84611 12.5176 8.80051 12.5485C8.78531 12.5485 8.75491 12.5639 8.72451 12.5639ZM7.87334 11.9923L8.60291 12.2395V11.8378L7.87334 11.5597V11.9923Z" fill="#000091"/>
<path d="M9.37809 14.0781C9.36289 14.0781 9.36289 14.0781 9.34769 14.0781L8.39012 13.8464C8.32932 13.8309 8.28372 13.7846 8.28372 13.7227V12.9966C8.28372 12.9502 8.29892 12.9193 8.32932 12.8884C8.35972 12.8575 8.40532 12.8575 8.45092 12.873L9.40849 13.1356C9.46929 13.1511 9.49968 13.1974 9.49968 13.2592V13.9545C9.49968 14.0009 9.48448 14.0318 9.45409 14.0627C9.43889 14.0627 9.40849 14.0781 9.37809 14.0781ZM8.55732 13.5991L9.25649 13.7691V13.3519L8.55732 13.1665V13.5991Z" fill="#000091"/>
<path d="M6.79417 11.0034C6.77897 11.0034 6.76377 11.0034 6.74857 11.0034L5.8974 10.7717C5.83661 10.7562 5.79101 10.6944 5.79101 10.6172V9.47382C5.79101 9.42747 5.82141 9.38112 5.85181 9.35022C5.8974 9.31931 5.943 9.31931 5.9886 9.33476L6.83977 9.64378C6.90057 9.65923 6.94617 9.72103 6.94617 9.78283V10.8489C6.94617 10.8953 6.93097 10.9416 6.88537 10.9725C6.85497 10.988 6.82457 11.0034 6.79417 11.0034ZM6.095 10.4936L6.64218 10.6481V9.89099L6.095 9.69013V10.4936Z" fill="#000091"/>
<path d="M10.5788 14.2326C10.3813 14.2326 10.2293 14.0472 10.2293 13.8309C10.2293 13.6146 10.3813 13.4292 10.5788 13.4292C10.7764 13.4292 10.9284 13.6146 10.9284 13.8309C10.9284 14.0472 10.7764 14.2326 10.5788 14.2326ZM10.5788 13.6455C10.5029 13.6455 10.4421 13.7227 10.4421 13.8309C10.4421 13.9391 10.5029 14.0163 10.5788 14.0163C10.6548 14.0163 10.7156 13.9391 10.7156 13.8309C10.7156 13.7227 10.6548 13.6455 10.5788 13.6455Z" fill="#000091"/>
<path d="M18.6194 10.5708C18.589 10.5708 18.5586 10.5554 18.5282 10.5399C18.4826 10.509 18.4674 10.4627 18.4674 10.4163V9.33476C18.4674 9.27296 18.513 9.21116 18.5738 9.19571L19.4098 8.8867C19.4554 8.87125 19.501 8.87125 19.5465 8.90215C19.5921 8.93305 19.6073 8.9794 19.6073 9.02575V10.1691C19.6073 10.2309 19.5618 10.2927 19.501 10.3236L18.665 10.5708C18.6498 10.5708 18.6346 10.5708 18.6194 10.5708ZM18.7714 9.44292V10.2155L19.3034 10.0609V9.25751L18.7714 9.44292Z" fill="#000091"/>
<path d="M18.6194 12.7339C18.589 12.7339 18.5586 12.7185 18.5282 12.703C18.4978 12.6721 18.4674 12.6257 18.4674 12.5794V11.467C18.4674 11.3897 18.513 11.3279 18.589 11.3124L19.425 11.0961C19.4706 11.0807 19.5162 11.0961 19.5618 11.127C19.5921 11.1579 19.6225 11.2043 19.6225 11.2506V12.394C19.6225 12.4712 19.577 12.533 19.501 12.5485L18.665 12.7339C18.6346 12.7339 18.6346 12.7339 18.6194 12.7339ZM18.7714 11.5906V12.394L19.3034 12.2704V11.4515L18.7714 11.5906Z" fill="#000091"/>
<path d="M17.2514 13.0584C17.221 13.0584 17.1906 13.0429 17.1602 13.0275C17.1298 12.9966 17.0994 12.9502 17.0994 12.9039V11.7914C17.0994 11.7142 17.145 11.6524 17.221 11.6369L18.057 11.4206C18.1026 11.4052 18.1482 11.4206 18.1938 11.4515C18.2242 11.4824 18.2546 11.5288 18.2546 11.5751V12.703C18.2546 12.7803 18.209 12.8421 18.133 12.8575L17.297 13.0584C17.2818 13.0584 17.2666 13.0584 17.2514 13.0584ZM17.4034 11.915V12.7185L17.9354 12.5949V11.7914L17.4034 11.915Z" fill="#000091"/>
<path d="M15.3059 12.5639C15.2755 12.5639 15.2451 12.5485 15.2299 12.533C15.1995 12.5021 15.1691 12.4712 15.1691 12.4249V11.7451C15.1691 11.6833 15.1995 11.6369 15.2603 11.6215L16.2635 11.2506C16.3091 11.2352 16.3547 11.2352 16.3851 11.2661C16.4155 11.297 16.4459 11.3279 16.4459 11.3742V12.085C16.4459 12.1468 16.4155 12.1931 16.3547 12.2086L15.3515 12.5485C15.3363 12.5639 15.3211 12.5639 15.3059 12.5639ZM15.4427 11.8378V12.2395L16.1875 11.9923V11.5751L15.4427 11.8378Z" fill="#000091"/>
<path d="M14.5915 14.0627C14.5611 14.0318 14.5459 14.0009 14.5459 13.9545V13.2592C14.5459 13.1974 14.5915 13.1511 14.6371 13.1356L15.5947 12.873C15.6403 12.8575 15.6707 12.873 15.7163 12.8884C15.7467 12.9193 15.7619 12.9502 15.7619 12.9966V13.7227C15.7619 13.7845 15.7163 13.8464 15.6555 13.8464L14.6979 14.0781C14.6827 14.0936 14.6067 14.0781 14.5915 14.0627ZM14.8043 13.3674V13.7845L15.5035 13.6146V13.1665L14.8043 13.3674Z" fill="#000091"/>
<path d="M17.2514 11.0034C17.221 11.0034 17.1906 10.988 17.1602 10.9725C17.1298 10.9416 17.0994 10.8953 17.0994 10.8489V9.78283C17.0994 9.72103 17.145 9.65923 17.2058 9.64378L18.0418 9.33476C18.0874 9.31931 18.133 9.31931 18.1786 9.35022C18.2242 9.38112 18.2394 9.42747 18.2394 9.47382V10.6172C18.2394 10.6944 18.1938 10.7408 18.133 10.7717L17.297 11.0034C17.2818 11.0034 17.2666 11.0034 17.2514 11.0034ZM17.4034 9.89099V10.6481L17.9354 10.4936V9.69013L17.4034 9.89099Z" fill="#000091"/>
<path d="M13.4668 14.2326C13.2692 14.2326 13.1172 14.0472 13.1172 13.8309C13.1172 13.6146 13.2692 13.4292 13.4668 13.4292C13.6643 13.4292 13.8163 13.6146 13.8163 13.8309C13.8163 14.0472 13.6643 14.2326 13.4668 14.2326ZM13.4668 13.6455C13.3908 13.6455 13.33 13.7227 13.33 13.8309C13.33 13.9391 13.3908 14.0163 13.4668 14.0163C13.5428 14.0163 13.6036 13.9391 13.6036 13.8309C13.6036 13.7227 13.5428 13.6455 13.4668 13.6455Z" fill="#000091"/>
<path d="M23.9848 5.61116C23.9848 5.58026 23.9848 5.56481 23.9848 5.53391C23.9544 5.45665 23.8632 5.4103 23.7872 5.4412L22.936 5.76567V6.24464L23.6808 5.88927V18.2498H22.936V18.5588H23.8328C23.924 18.5588 23.9848 18.497 24 18.4043V5.64206C24 5.64206 24 5.62661 23.9848 5.61116Z" fill="#000091"/>
<path d="M20.1545 7.15622V6.83176L19.3946 7.12532C19.3794 7.12532 19.3794 7.14077 19.3642 7.14077C19.3642 7.14077 16.765 8.76309 16.7194 8.79399C16.6738 8.82489 16.6282 8.87124 16.6282 8.93305V9.81373L14.1203 11.3279C14.0747 11.3433 14.0443 11.4051 14.0443 11.4515L14.0291 12.1931L12.6612 13.012C12.5852 13.0584 12.6156 13.1665 12.6156 13.2438C12.6156 13.321 12.6156 14.9279 12.6156 14.9279L12.038 14.7116C12.0076 14.6961 11.962 14.6961 11.9316 14.7116L11.4148 14.9279C11.4148 14.9279 11.4148 13.2592 11.4148 13.2438C11.4148 13.1511 11.43 13.0738 11.354 13.0275L9.98607 12.2086L9.97087 11.467C9.97087 11.4206 9.94047 11.3742 9.89487 11.3433L7.40215 9.84463V8.93305C7.40215 8.87124 7.37175 8.82489 7.31096 8.79399L7.11336 8.70129L4.11906 6.86266C4.10386 6.86266 4.10386 6.84721 4.08866 6.84721L3.87587 6.75451V7.09442L3.96707 7.14077L4.68145 7.60429L4.10386 7.34163C4.08866 7.34163 4.08866 7.34163 4.08866 7.34163L3.87587 7.21803V18.5897H4.01267C4.05827 18.5897 4.08866 18.5742 4.13426 18.5433C4.17986 18.5124 11.9924 15.0361 11.9924 15.0361C11.9924 15.0361 19.9417 18.5742 19.9873 18.5897C20.0329 18.6051 20.1545 18.5897 20.1545 18.5897V7.26438L18.7714 7.8824L19.501 7.41888L20.1545 7.15622ZM6.26219 17.23L5.09183 17.7554V13.9236L6.26219 14.1399V17.23ZM7.08297 16.8438L6.56618 17.0755V14.0163C6.56618 13.9391 6.52058 13.8773 6.44459 13.8618L4.97024 13.5991C4.92464 13.5837 4.87904 13.5991 4.84864 13.63C4.80304 13.6609 4.78784 13.7073 4.78784 13.7536V17.879L4.17986 18.1571V7.71245L6.91577 8.9485L7.08297 9.0412V16.8438ZM7.40215 10.2L8.48132 10.8489L7.40215 10.37V10.2ZM8.22293 14.4798L8.86131 14.5725L8.87651 16.0403L8.23813 16.3185L8.22293 14.4798ZM9.63648 12.6876C9.63648 12.703 9.63648 12.7339 9.63648 12.7494V15.7004L9.1197 15.9322L9.1045 14.4644C9.1045 14.3871 9.0589 14.3408 8.9981 14.3253L8.10133 14.1863C8.05573 14.1863 8.02533 14.1863 7.99493 14.2172C7.96453 14.2481 7.94934 14.279 7.94934 14.3253L7.96454 16.4421L7.40215 16.6893V10.6944L9.63648 11.6987V12.6876ZM9.94047 12.5485L10.2141 12.7185L9.94047 12.6258V12.5485ZM10.7004 15.2369L10.4421 15.3605V14.6343L10.7004 14.6652V15.2369ZM11.1108 15.0515L10.9132 15.1288V14.5416C10.9132 14.4798 10.8676 14.4335 10.8068 14.4335L10.3357 14.4026C10.3053 14.4026 10.2749 14.418 10.2597 14.4335C10.2445 14.4489 10.2293 14.4798 10.2293 14.5107V15.4532L9.94047 15.5768V12.9657L11.1108 13.3674V15.0515ZM13.5883 15.3296L13.33 15.206V14.6343L13.5883 14.6189V15.3296ZM14.0899 15.5614L13.7859 15.4223V14.5107C13.7859 14.4798 13.7707 14.4489 13.7555 14.4335C13.7403 14.418 13.7099 14.4026 13.6795 14.4026L13.2084 14.4335C13.1476 14.4335 13.102 14.4798 13.102 14.5416V15.1133L12.9196 15.0361V13.3365L14.0899 12.9502V15.5614ZM14.0899 12.6412L13.5731 12.8112L14.0899 12.5021V12.6412ZM15.7467 16.303L15.1083 16.0094L15.1235 14.5262L15.7619 14.4335L15.7467 16.303ZM16.6282 16.7047L16.0051 16.4266L16.0203 14.2944C16.0203 14.2481 16.0051 14.2172 15.9747 14.1863C15.9443 14.1554 15.9139 14.1554 15.8683 14.1554L14.9715 14.2944C14.9107 14.3099 14.8651 14.3717 14.8651 14.4335L14.8499 15.9013L14.3939 15.7004V11.6987L16.6282 10.6944V16.7047ZM16.6282 10.37L15.3211 10.9571L16.6282 10.1691V10.37ZM17.7074 17.2146V14.0936L18.8778 13.8927V17.7245L17.7074 17.2146ZM19.8353 7.7279V18.1725L19.1818 17.879V13.7227C19.1818 13.6764 19.1514 13.63 19.121 13.5991C19.0906 13.5682 19.045 13.5528 18.9994 13.5682L17.525 13.8309C17.449 13.8464 17.4034 13.9082 17.4034 13.9854V17.0755L16.9474 16.8747L16.9322 9.05665L19.8353 7.7279Z" fill="#000091"/>
<path d="M0.319189 5.90472L1.04877 6.24464V5.82747L0.395187 5.59571L0.227993 5.51846C0.167195 5.503 0.121596 5.503 0.0759976 5.53391C0.0303992 5.54936 0 5.61116 0 5.65751V18.4197C0 18.5124 0.0607982 18.5742 0.151995 18.5742H1.04877V18.2652H0.319189V5.90472Z" fill="#000091"/>
<path d="M21.5529 8.67039C21.0817 8.67039 20.7017 8.28412 20.7017 7.80515V4.73047H17.0842C16.613 4.73047 16.2331 4.34421 16.2331 3.86524C16.2331 3.38627 16.613 3 17.0842 3H21.5529C22.0241 3 22.4041 3.38627 22.4041 3.86524V7.80515C22.4041 8.28412 22.0241 8.67039 21.5529 8.67039Z" fill="#000091"/>
<path d="M6.90057 21H2.43192C1.96073 21 1.58075 20.6137 1.58075 20.1348V16.1948C1.58075 15.7159 1.96073 15.3296 2.43192 15.3296C2.9031 15.3296 3.28309 15.7159 3.28309 16.1948V19.2695H6.90057C7.37175 19.2695 7.75174 19.6558 7.75174 20.1348C7.75174 20.6137 7.37175 21 6.90057 21Z" fill="#000091"/>
<path d="M2.43192 8.67039C1.96073 8.67039 1.58075 8.28412 1.58075 7.80515V3.86524C1.58075 3.38627 1.96073 3 2.43192 3H6.90057C7.37175 3 7.75174 3.38627 7.75174 3.86524C7.75174 4.34421 7.37175 4.73047 6.90057 4.73047H3.28309V7.80515C3.28309 8.28412 2.9031 8.67039 2.43192 8.67039Z" fill="#000091"/>
<path d="M21.5529 21H17.0842C16.613 21 16.2331 20.6137 16.2331 20.1348C16.2331 19.6558 16.613 19.2695 17.0842 19.2695H20.7017V16.1948C20.7017 15.7159 21.0817 15.3296 21.5529 15.3296C22.0241 15.3296 22.4041 15.7159 22.4041 16.1948V20.1348C22.4041 20.6137 22.0241 21 21.5529 21Z" fill="#000091"/>
</svg>
