<svg width="24" height="24" viewBox="0 0 24 24" fill="none" xmlns="http://www.w3.org/2000/svg">
<path d="M5.85 8C7.50685 8 8.85 6.65685 8.85 5C8.85 3.34315 7.50685 2 5.85 2C4.19315 2 2.85 3.34315 2.85 5C2.85 6.65685 4.19315 8 5.85 8Z" fill="#000091"/>
<path d="M19 11C20.6569 11 22 9.65685 22 8C22 6.34315 20.6569 5 19 5C17.3431 5 16 6.34315 16 8C16 9.65685 17.3431 11 19 11Z" fill="#000091"/>
<path d="M19 22C20.6569 22 22 20.6569 22 19C22 17.3431 20.6569 16 19 16C17.3431 16 16 17.3431 16 19C16 20.6569 17.3431 22 19 22Z" fill="#000091"/>
<path d="M8.86 18C8.94 18.32 9 18.65 9 19C9 19.35 8.94 19.68 8.86 20H15.14C15.06 19.68 15 19.35 15 19C15 18.65 15.06 18.32 15.14 18H8.86Z" fill="#000091"/>
<path d="M6.56 8.93C6.33 8.97 6.09 9 5.85 9C5.4 9 4.97 8.91 4.57 8.77L4.16 15.09C4.43 15.03 4.72 15 5.01 15C5.41 15 5.79 15.08 6.16 15.19L6.57 8.93H6.56Z" fill="#000091"/>
<path d="M9.85 5C9.85 5.67 9.67 6.28 9.38 6.84L15.01 8.12C15.01 8.12 15 8.04 15 8C15 7.77 15.03 7.55 15.07 7.33C15.08 7.24 15.1 7.16 15.12 7.08C15.15 6.97 15.18 6.87 15.22 6.77C15.29 6.56 15.37 6.36 15.47 6.17L9.84 4.89C9.84 4.89 9.85 4.96 9.85 5Z" fill="#000091"/>
<path d="M18 11.86V15.14C18.32 15.06 18.65 15 19 15C19.35 15 19.68 15.06 20 15.14V11.86C19.68 11.94 19.35 12 19 12C18.65 12 18.32 11.94 18 11.86Z" fill="#000091"/>
<path d="M5 22C6.65685 22 8 20.6569 8 19C8 17.3431 6.65685 16 5 16C3.34315 16 2 17.3431 2 19C2 20.6569 3.34315 22 5 22Z" fill="#000091"/>
</svg>
