<svg width="24" height="24" viewBox="0 0 24 24" fill="none" xmlns="http://www.w3.org/2000/svg">
<path d="M17.9922 16.3915C17.6994 16.0987 17.2245 16.0987 16.9316 16.3915C16.6387 16.6844 16.6387 17.1593 16.9316 17.4522L17.9922 16.3915ZM19.4695 19.9901L19.9998 20.5204L21.0605 19.4598L20.5301 18.9294L19.4695 19.9901ZM16.9316 17.4522L19.4695 19.9901L20.5301 18.9294L17.9922 16.3915L16.9316 17.4522Z" fill="white"/>
<path d="M20.5303 19.9902L21.0607 19.4598L20 18.3992L19.4697 18.9295L20.5303 19.9902ZM16.9317 21.4674C16.6388 21.7603 16.6388 22.2352 16.9317 22.5281C17.2246 22.821 17.6995 22.821 17.9924 22.5281L16.9317 21.4674ZM19.4697 18.9295L16.9317 21.4674L17.9924 22.5281L20.5303 19.9902L19.4697 18.9295Z" fill="white"/>
<path d="M1.46967 5.67804C1.17678 5.97094 1.17678 6.44581 1.46967 6.7387C1.76256 7.0316 2.23744 7.0316 2.53033 6.7387L1.46967 5.67804ZM4.73858 4.53045L5.26891 4.00012L4.20825 2.93946L3.67792 3.46979L4.73858 4.53045ZM2.53033 6.7387L4.73858 4.53045L3.67792 3.46979L1.46967 5.67804L2.53033 6.7387Z" fill="white"/>
<path d="M4.73883 3.47059L4.2085 2.94026L3.14784 4.00092L3.67817 4.53125L4.73883 3.47059ZM5.88646 6.73954C6.17935 7.03243 6.65423 7.03243 6.94712 6.73954C7.24001 6.44665 7.24001 5.97177 6.94712 5.67888L5.88646 6.73954ZM3.67817 4.53125L5.88646 6.73954L6.94712 5.67888L4.73883 3.47059L3.67817 4.53125Z" fill="white"/>
<path d="M4.20898 5.10455V16.9843C4.20898 18.3781 5.15458 19.4621 6.37035 19.4621H19.1188" stroke="white" stroke-width="1.5" stroke-miterlimit="10" stroke-linecap="round" stroke-linejoin="round"/>
<path d="M19.6709 12.8356L19.6709 6.06495C19.6709 4.9035 18.8829 4.00015 17.8698 4.00015L10.8355 4.00015" stroke="white" stroke-miterlimit="10" stroke-linecap="round" stroke-linejoin="round"/>
<path d="M16.3574 11.9835L12.2343 16.0697" stroke="white" stroke-linecap="round"/>
<path d="M16.2773 7.3927L7.52215 16.0695" stroke="white" stroke-linecap="round"/>
<path d="M11.645 7.3136L7.52187 11.3998" stroke="white" stroke-linecap="round"/>
</svg>
