<svg width="24" height="24" viewBox="0 0 24 24" fill="none" xmlns="http://www.w3.org/2000/svg">
<path d="M13.7725 10.9675L18.1525 10.9675C18.5625 10.9675 18.9025 10.6275 18.9025 10.2175C18.9025 9.80753 18.5625 9.46753 18.1525 9.46753L15.5925 9.46753L20.7825 4.27753C21.0725 3.98753 21.0725 3.50753 20.7825 3.21753C20.4925 2.92753 20.0125 2.92753 19.7225 3.21753L14.5225 8.41753L14.5225 5.85753C14.5225 5.44753 14.1825 5.10753 13.7725 5.10753C13.3625 5.10753 13.0225 5.44753 13.0225 5.85753L13.0225 10.9675L13.7725 10.9675Z" fill="white"/>
<path d="M4.27753 20.7825L9.46753 15.5925L9.46753 18.1525C9.46753 18.5625 9.80753 18.9025 10.2175 18.9025C10.6275 18.9025 10.9675 18.5625 10.9675 18.1525L10.9675 13.0325L5.84753 13.0325C5.43753 13.0325 5.09753 13.3725 5.09753 13.7825C5.09753 14.1925 5.43753 14.5325 5.84753 14.5325L8.40753 14.5325L3.21753 19.7225C2.92753 20.0125 2.92753 20.4925 3.21753 20.7825C3.50753 21.0725 3.98753 21.0725 4.27753 20.7825Z" fill="white"/>
</svg>