<svg width="17" height="17" viewBox="0 0 17 17" fill="none" xmlns="http://www.w3.org/2000/svg">
<path d="M6.33337 5.33344C6.88566 5.33344 7.33337 4.88572 7.33337 4.33344C7.33337 3.78115 6.88566 3.33344 6.33337 3.33344C5.78109 3.33344 5.33337 3.78115 5.33337 4.33344C5.33337 4.88572 5.78109 5.33344 6.33337 5.33344ZM6.33337 9.66677C6.88566 9.66677 7.33337 9.21904 7.33337 8.66677C7.33337 8.1145 6.88566 7.66677 6.33337 7.66677C5.78109 7.66677 5.33337 8.1145 5.33337 8.66677C5.33337 9.21904 5.78109 9.66677 6.33337 9.66677ZM7.33337 13.0001C7.33337 13.5524 6.88566 14.0001 6.33337 14.0001C5.78109 14.0001 5.33337 13.5524 5.33337 13.0001C5.33337 12.4478 5.78109 12.0001 6.33337 12.0001C6.88566 12.0001 7.33337 12.4478 7.33337 13.0001ZM11 5.33344C11.5523 5.33344 12 4.88572 12 4.33344C12 3.78115 11.5523 3.33344 11 3.33344C10.4478 3.33344 10 3.78115 10 4.33344C10 4.88572 10.4478 5.33344 11 5.33344ZM12 8.66677C12 9.21904 11.5523 9.66677 11 9.66677C10.4478 9.66677 10 9.21904 10 8.66677C10 8.1145 10.4478 7.66677 11 7.66677C11.5523 7.66677 12 8.1145 12 8.66677ZM11 14.0001C11.5523 14.0001 12 13.5524 12 13.0001C12 12.4478 11.5523 12.0001 11 12.0001C10.4478 12.0001 10 12.4478 10 13.0001C10 13.5524 10.4478 14.0001 11 14.0001Z" fill="#000091"/>
</svg>
