<svg width="17" height="17" viewBox="0 0 17 17" fill="none" xmlns="http://www.w3.org/2000/svg">
<path d="M11.4167 2.16665C11.1405 2.16665 10.9167 2.39051 10.9167 2.66665C10.9167 2.94279 11.1405 3.16665 11.4167 3.16665V2.16665ZM14.3334 3.16665H14.8334V2.16665H14.3334V3.16665ZM11.4167 3.16665H14.3334V2.16665H11.4167V3.16665Z" fill="#000091"/>
<path d="M14.8334 2.66665V2.16665H13.8334V2.66665H14.8334ZM13.8334 5.58332C13.8334 5.85946 14.0572 6.08332 14.3334 6.08332C14.6095 6.08332 14.8334 5.85946 14.8334 5.58332H13.8334ZM13.8334 2.66665V5.58332H14.8334V2.66665H13.8334Z" fill="#000091"/>
<path d="M5.58337 14.8333C5.85952 14.8333 6.08337 14.6095 6.08337 14.3333C6.08337 14.0572 5.85952 13.8333 5.58337 13.8333L5.58337 14.8333ZM2.66671 13.8333L2.16671 13.8333L2.16671 14.8333L2.66671 14.8333L2.66671 13.8333ZM5.58337 13.8333L2.66671 13.8333L2.66671 14.8333L5.58337 14.8333L5.58337 13.8333Z" fill="#000091"/>
<path d="M2.16669 14.3333L2.16669 14.8333L3.16669 14.8333L3.16669 14.3333L2.16669 14.3333ZM3.16669 11.4167C3.16669 11.1405 2.94283 10.9167 2.66669 10.9167C2.39054 10.9167 2.16669 11.1405 2.16669 11.4167L3.16669 11.4167ZM3.16669 14.3333L3.16669 11.4167L2.16669 11.4167L2.16669 14.3333L3.16669 14.3333Z" fill="#000091"/>
<path d="M14.1412 3.56591L14.4947 3.21236L13.7876 2.50525L13.434 2.8588L14.1412 3.56591ZM9.66281 6.63004C9.46755 6.8253 9.46755 7.14188 9.66281 7.33715C9.85807 7.53241 10.1747 7.53241 10.3699 7.33715L9.66281 6.63004ZM13.434 2.8588L9.66281 6.63004L10.3699 7.33715L14.1412 3.56591L13.434 2.8588Z" fill="#000091"/>
<path d="M7.33268 10.3745C7.52794 10.1793 7.52794 9.86269 7.33268 9.66743C7.13742 9.47217 6.82083 9.47217 6.62557 9.66743L7.33268 10.3745ZM2.85434 13.4387L2.50078 13.7922L3.20789 14.4993L3.56144 14.1458L2.85434 13.4387ZM6.62557 9.66743L2.85434 13.4387L3.56144 14.1458L7.33268 10.3745L6.62557 9.66743Z" fill="#000091"/>
</svg>
