<svg width="17" height="17" viewBox="0 0 17 17" fill="none" xmlns="http://www.w3.org/2000/svg">
<circle cx="8.66667" cy="8.66669" r="6.16667" stroke="#000091" stroke-miterlimit="10"/>
<path d="M9.94048 11.9985H7.33484V11.5576H7.47366C7.65978 11.5576 7.79403 11.5317 7.87946 11.4813C7.96337 11.4295 8.01676 11.3578 8.03507 11.2647C8.0549 11.1716 8.06405 11.0359 8.06405 10.8574V9.43251C8.06405 9.23419 8.05185 9.09384 8.02744 9.00993C8.00303 8.92755 7.94048 8.86653 7.8398 8.82687C7.73911 8.78873 7.56977 8.76737 7.33331 8.76432V8.32344L9.30128 7.91001V10.8574C9.30128 11.1259 9.33484 11.3105 9.40196 11.4096C9.46909 11.5088 9.6491 11.5591 9.93896 11.5591V12L9.94048 11.9985ZM9.39891 6.03205C9.39891 6.22427 9.33026 6.38751 9.19449 6.52481C9.05871 6.66058 8.89395 6.72923 8.70326 6.72923C8.51257 6.72923 8.35086 6.65906 8.21203 6.52023C8.07321 6.38141 8.00303 6.21817 8.00303 6.03358C8.00303 5.84899 8.07168 5.6766 8.20898 5.5393C8.34628 5.402 8.51104 5.33335 8.70326 5.33335C8.89548 5.33335 9.06329 5.40048 9.19754 5.53472C9.33179 5.66897 9.39891 5.83526 9.39891 6.03358V6.03205Z" fill="#000091"/>
</svg>
