<svg width="17" height="17" viewBox="0 0 17 17" fill="none" xmlns="http://www.w3.org/2000/svg">
<path d="M8.81175 3.33348C12.2068 3.33348 15.0313 5.77629 15.6235 9.00015C15.0313 12.224 12.2068 14.6668 8.81175 14.6668C5.41667 14.6668 2.59217 12.224 2 9.00015C2.59217 5.77629 5.41667 3.33348 8.81175 3.33348ZM8.81175 13.4076C11.4786 13.4076 13.7606 11.5514 14.3383 9.00015C13.7606 6.44891 11.4786 4.59274 8.81175 4.59274C6.14483 4.59274 3.86281 6.44891 3.28516 9.00015C3.86281 11.5514 6.14483 13.4076 8.81175 13.4076ZM8.81175 11.8335C7.24692 11.8335 5.97839 10.565 5.97839 9.00015C5.97839 7.43534 7.24692 6.16681 8.81175 6.16681C10.3765 6.16681 11.6451 7.43534 11.6451 9.00015C11.6451 10.565 10.3765 11.8335 8.81175 11.8335ZM8.81175 10.5742C9.68108 10.5742 10.3858 9.86948 10.3858 9.00015C10.3858 8.13082 9.68108 7.42607 8.81175 7.42607C7.94242 7.42607 7.23765 8.13082 7.23765 9.00015C7.23765 9.86948 7.94242 10.5742 8.81175 10.5742Z" fill="#000091"/>
</svg>
