<svg width="17" height="17" viewBox="0 0 17 17" fill="none" xmlns="http://www.w3.org/2000/svg">
<path d="M12.518 13.2751C11.4465 13.9545 10.1759 14.3479 8.81335 14.3479C5.41748 14.3479 2.59231 11.9045 2 8.67989C2.27501 7.18267 3.03137 5.85389 4.10272 4.85989L2.13353 2.89071L3.02417 2.00006L15.4932 14.469L14.6025 15.3597L12.518 13.2751ZM4.99394 5.75111C4.15705 6.51343 3.54684 7.52551 3.28546 8.67989C3.86325 11.2317 6.1458 13.0883 8.81335 13.0883C9.82062 13.0883 10.773 12.8236 11.5995 12.3567L10.3221 11.0793C9.88524 11.3546 9.36787 11.5139 8.81335 11.5139C7.24815 11.5139 5.97933 10.245 5.97933 8.67989C5.97933 8.12531 6.1386 7.60795 6.41391 7.17108L4.99394 5.75111ZM9.38872 10.1459L7.34733 8.10453C7.27732 8.28276 7.23888 8.47679 7.23888 8.67989C7.23888 9.54943 7.94382 10.2543 8.81335 10.2543C9.01639 10.2543 9.21049 10.2159 9.38872 10.1459ZM14.3595 11.572L13.4584 10.6709C13.8715 10.0822 14.176 9.40943 14.3412 8.67989C13.7634 6.12802 11.4808 4.27142 8.81335 4.27142C8.28062 4.27142 7.76326 4.34547 7.27178 4.4843L6.27797 3.49049C7.06318 3.18155 7.91844 3.01187 8.81335 3.01187C12.2092 3.01187 15.0344 5.45526 15.6267 8.67989C15.4301 9.75027 14.9874 10.7346 14.3595 11.572ZM8.63865 5.85117C8.6964 5.84765 8.75466 5.84587 8.81335 5.84587C10.3785 5.84587 11.6474 7.1147 11.6474 8.67989C11.6474 8.73853 11.6455 8.79678 11.6421 8.85453L8.63865 5.85117Z" fill="#000091"/>
</svg>
