<?xml version="1.0" encoding="UTF-8" standalone="no"?>
<!-- Created with Inkscape (http://www.inkscape.org/) -->

<svg
   width="5.2912626mm"
   height="4.9384179mm"
   viewBox="0 0 5.2912626 4.9384179"
   version="1.1"
   id="svg1"
   xml:space="preserve"
   inkscape:version="1.3 (1:1.3+202307231459+0e150ed6c4)"
   sodipodi:docname="icons.svg"
   xmlns:inkscape="http://www.inkscape.org/namespaces/inkscape"
   xmlns:sodipodi="http://sodipodi.sourceforge.net/DTD/sodipodi-0.dtd"
   xmlns="http://www.w3.org/2000/svg"
   xmlns:svg="http://www.w3.org/2000/svg"><sodipodi:namedview
     id="namedview1"
     pagecolor="#ffffff"
     bordercolor="#666666"
     borderopacity="1.0"
     inkscape:showpageshadow="2"
     inkscape:pageopacity="0.0"
     inkscape:pagecheckerboard="0"
     inkscape:deskcolor="#d1d1d1"
     inkscape:document-units="mm"
     inkscape:export-bgcolor="#ffffff00"
     inkscape:zoom="8.1107392"
     inkscape:cx="399.59366"
     inkscape:cy="903.925"
     inkscape:window-width="840"
     inkscape:window-height="1013"
     inkscape:window-x="4680"
     inkscape:window-y="0"
     inkscape:window-maximized="0"
     inkscape:current-layer="layer1" /><defs
     id="defs1" /><g
     inkscape:label="Calque 1"
     inkscape:groupmode="layer"
     id="layer1"
     transform="translate(-101.82505,-124.82016)"><path
       d="m 104.2594,125.93105 c -0.10205,0 -0.18864,0 -0.27834,0 -0.12991,0 -0.18248,-0.0926 -0.12062,-0.20373 0.15774,-0.27781 0.31856,-0.55298 0.47937,-0.82815 0.0619,-0.10583 0.16701,-0.10583 0.22887,0.003 0.15774,0.26987 0.31236,0.5371 0.46701,0.80698 0.0773,0.13494 0.0247,0.2196 -0.133,0.22225 -0.0835,0 -0.16701,0 -0.2567,0 0,0.037 -0.003,0.0609 -0.003,0.09 0,0.54239 0,1.08214 0,1.62454 0,0.037 0.0217,0.09 0.0495,0.11112 0.53194,0.37571 1.06698,0.75142 1.60202,1.12448 0.006,0.003 0.0155,0.008 0.0278,0.0132 0.0557,-0.0741 0.11133,-0.14817 0.167,-0.2196 0.0866,-0.11113 0.18867,-0.10319 0.24125,0.0265 0.12369,0.28575 0.24431,0.57414 0.36494,0.85725 0.0557,0.12964 -0.003,0.21166 -0.14537,0.19579 -0.30617,-0.0344 -0.61235,-0.0688 -0.91855,-0.10584 -0.15462,-0.0185 -0.19174,-0.11377 -0.0959,-0.23812 0.0433,-0.0582 0.0866,-0.11642 0.12989,-0.17727 0.003,-0.003 0.003,-0.008 0.0124,-0.0265 -0.0959,-0.0688 -0.19484,-0.14023 -0.29382,-0.21167 -0.42061,-0.29633 -0.84431,-0.59002 -1.26492,-0.88635 -0.0526,-0.037 -0.0897,-0.0423 -0.14536,0 -0.49792,0.35189 -0.99896,0.70379 -1.49688,1.05569 -0.0124,0.008 -0.0216,0.0132 -0.0371,0.0264 0.0588,0.0794 0.12062,0.15611 0.17629,0.23548 0.0773,0.10848 0.0402,0.20373 -0.0959,0.21961 -0.31543,0.0397 -0.63399,0.0767 -0.94945,0.11112 -0.11753,0.0132 -0.1763,-0.0714 -0.12989,-0.18521 0.10205,-0.24341 0.2072,-0.48947 0.31234,-0.73289 0.0217,-0.0503 0.0402,-0.10054 0.0619,-0.14552 0.0526,-0.11113 0.15155,-0.12436 0.23196,-0.0291 0.0495,0.0662 0.099,0.12965 0.14846,0.1958 0.003,0.003 0.009,0.005 0.0216,0.0132 0.17629,-0.12435 0.35259,-0.2487 0.53195,-0.3757 0.34329,-0.24077 0.68659,-0.48419 1.03298,-0.72232 0.0588,-0.0397 0.0773,-0.0847 0.0773,-0.15345 0,-0.52653 0,-1.05834 0,-1.5875 0,-0.0318 0,-0.0635 0,-0.10584 z"
       fill="#000091"
       id="path136"
       style="fill:#ffffff;stroke-width:0.264583" /></g></svg>
