<svg width="16" height="16" viewBox="0 0 16 16" fill="none" xmlns="http://www.w3.org/2000/svg">
<path fill-rule="evenodd" clip-rule="evenodd" d="M3.33335 8.66683C4.80611 8.66683 6.00002 9.86074 6.00002 11.3335C6.00002 12.8063 4.80611 14.0002 3.33335 14.0002C1.86059 14.0002 0.666687 12.8063 0.666687 11.3335C0.666687 9.86074 1.86059 8.66683 3.33335 8.66683ZM12 7.3335C13.841 7.3335 15.3334 8.82588 15.3334 10.6668C15.3334 12.5078 13.841 14.0002 12 14.0002C10.1591 14.0002 8.66669 12.5078 8.66669 10.6668C8.66669 8.82588 10.1591 7.3335 12 7.3335ZM3.33335 10.0002C2.59697 10.0002 2.00002 10.5971 2.00002 11.3335C2.00002 12.0699 2.59697 12.6668 3.33335 12.6668C4.06973 12.6668 4.66669 12.0699 4.66669 11.3335C4.66669 10.5971 4.06973 10.0002 3.33335 10.0002ZM12 8.66683C10.8955 8.66683 10 9.56226 10 10.6668C10 11.7714 10.8955 12.6668 12 12.6668C13.1046 12.6668 14 11.7714 14 10.6668C14 9.56226 13.1046 8.66683 12 8.66683ZM10.652 2.00016C10.9592 1.99339 11.2312 2.1974 11.3107 2.49416L12.346 6.35816L11.058 6.70283L10.8874 6.0655L3.66669 8.00016H2.66669V4.66683H1.33335V3.3335H5.33335V4.66683H4.00002V6.53016L10.542 4.7775L10.1554 3.3335H8.00002V2.00016H10.652Z" fill="#161616"/>
</svg>
