<svg width="24" height="24" viewBox="0 0 24 24" fill="none" xmlns="http://www.w3.org/2000/svg">
<path d="M16 14.67C17.06 15.62 18.46 16.2 20 16.2H22V18.2H20C18.54 18.2 17.18 17.81 16 17.13C14.82 17.81 13.46 18.2 12 18.2C10.54 18.2 9.18 17.81 8 17.13C6.82 17.81 5.46 18.2 4 18.2H2V16.2H4C5.54 16.2 6.94 15.62 8 14.67C9.06 15.62 10.46 16.2 12 16.2C13.54 16.2 14.94 15.62 16 14.67Z" fill="#000091"/>
<path d="M16 9.84C17.06 10.79 18.46 11.37 20 11.37H22V13.37H20C18.54 13.37 17.18 12.98 16 12.3C14.82 12.98 13.46 13.37 12 13.37C10.54 13.37 9.18 12.98 8 12.3C6.82 12.98 5.46 13.37 4 13.37H2V11.37H4C5.54 11.37 6.94 10.79 8 9.84C9.06 10.79 10.46 11.37 12 11.37C13.54 11.37 14.94 10.79 16 9.84Z" fill="#000091"/>
<path d="M16 5C17.06 5.95 18.46 6.53 20 6.53H22V8.53H20C18.54 8.53 17.18 8.14 16 7.46C14.82 8.14 13.46 8.53 12 8.53C10.54 8.53 9.18 8.14 8 7.46C6.82 8.14 5.46 8.53 4 8.53H2V6.53H4C5.54 6.53 6.94 5.95 8 5C9.06 5.95 10.46 6.53 12 6.53C13.54 6.53 14.94 5.95 16 5Z" fill="#000091"/>
</svg>
