<svg width="16" height="16" viewBox="0 0 16 16" fill="none" xmlns="http://www.w3.org/2000/svg">
<path d="M2.66667 2H13.3333C13.7015 2 14 2.29848 14 2.66667V13.3333C14 13.7015 13.7015 14 13.3333 14H2.66667C2.29848 14 2 13.7015 2 13.3333V2.66667C2 2.29848 2.29848 2 2.66667 2ZM3.33333 3.33333V12.6667H12.6667V3.33333H3.33333ZM6 4.66667H8.33333C9.622 4.66667 10.6667 5.71133 10.6667 7C10.6667 8.28867 9.622 9.33333 8.33333 9.33333H7.33333V11.3333H6V4.66667ZM7.33333 6V8H8.33333C8.8856 8 9.33333 7.55227 9.33333 7C9.33333 6.44771 8.8856 6 8.33333 6H7.33333Z" fill="black"/>
</svg>
