<svg width="22" height="22" viewBox="0 0 16 16" fill="none" xmlns="http://www.w3.org/2000/svg">
  <path fill-rule="evenodd" clip-rule="evenodd" d="M2.22671 11.3333C1.94489 10.846 1.72582 10.325 1.57471 9.78267C2.24529 9.44161 2.66774 8.75308 2.66802 8.00075C2.6683 7.24841 2.24637 6.55957 1.57604 6.218C1.8774 5.12833 2.45119 4.13331 3.24337 3.32667C3.87425 3.73682 4.68194 3.75816 5.33359 3.38189C5.98524 3.00562 6.37054 2.29543 6.33071 1.544C7.42545 1.26109 8.57419 1.26154 9.66871 1.54534C9.62922 2.29675 10.0148 3.00673 10.6666 3.38271C11.3184 3.75869 12.126 3.73704 12.7567 3.32667C13.1427 3.72 13.4854 4.16734 13.7734 4.66667C14.062 5.166 14.278 5.68667 14.4254 6.21734C13.7548 6.5584 13.3323 7.24693 13.3321 7.99926C13.3318 8.75159 13.7537 9.44044 14.424 9.782C14.1227 10.8717 13.5489 11.8667 12.7567 12.6733C12.1258 12.2632 11.3181 12.2418 10.6665 12.6181C10.0148 12.9944 9.62954 13.7046 9.66937 14.456C8.57463 14.7389 7.42589 14.7385 6.33137 14.4547C6.37086 13.7033 5.98526 12.9933 5.33349 12.6173C4.68171 12.2413 3.87407 12.263 3.24337 12.6733C2.84937 12.2713 2.50777 11.8211 2.22671 11.3333ZM6.00004 11.464C6.71046 11.8738 7.2446 12.5314 7.50004 13.3107C7.83271 13.342 8.16671 13.3427 8.49937 13.3113C8.75498 12.5319 9.28937 11.8743 10 11.4647C10.7102 11.0538 11.5471 10.9197 12.35 11.088C12.5434 10.816 12.71 10.526 12.8487 10.2227C12.3017 9.61163 11.9995 8.82014 12 8C12 7.16 12.3134 6.37534 12.8487 5.77734C12.7091 5.4741 12.5417 5.18443 12.3487 4.912C11.5462 5.08021 10.7099 4.94632 10 4.536C9.28962 4.12625 8.75548 3.46866 8.50004 2.68934C8.16737 2.658 7.83337 2.65734 7.50071 2.68867C7.24511 3.4681 6.71071 4.12571 6.00004 4.53534C5.2899 4.94621 4.45303 5.08035 3.65004 4.912C3.45708 5.18419 3.29013 5.47391 3.15137 5.77734C3.69842 6.38838 4.00063 7.17986 4.00004 8C4.00004 8.84 3.68671 9.62467 3.15137 10.2227C3.29102 10.5259 3.4584 10.8156 3.65137 11.088C4.45385 10.9198 5.29018 11.0537 6.00004 11.464ZM8.00004 10C6.89547 10 6.00004 9.10457 6.00004 8C6.00004 6.89543 6.89547 6 8.00004 6C9.10461 6 10 6.89543 10 8C10 9.10457 9.10461 10 8.00004 10ZM8.00004 8.66667C8.36823 8.66667 8.66671 8.36819 8.66671 8C8.66671 7.63181 8.36823 7.33334 8.00004 7.33334C7.63185 7.33334 7.33337 7.63181 7.33337 8C7.33337 8.36819 7.63185 8.66667 8.00004 8.66667Z" fill="#000091"/>
</svg>