<svg width="16" height="16" viewBox="0 0 16 16" fill="none" xmlns="http://www.w3.org/2000/svg">
<path d="M11.4667 13.3333L12.6667 14.3333V14.6667H3.33333V14.3333L4.53333 13.3333H3.33333C2.59695 13.3333 2 12.7364 2 12V4.66667C2 3.19391 3.19391 2 4.66667 2H11.3333C12.8061 2 14 3.19391 14 4.66667V12C14 12.7364 13.4031 13.3333 12.6667 13.3333H11.4667ZM8.66667 3.33333V7.33333H12.6667V4.66667C12.6667 3.93029 12.0697 3.33333 11.3333 3.33333H8.66667ZM7.33333 3.33333H4.66667C3.93029 3.33333 3.33333 3.93029 3.33333 4.66667V7.33333H7.33333V3.33333ZM12.6667 8.66667H3.33333V12H12.6667V8.66667ZM5 11.3333C4.44771 11.3333 4 10.8856 4 10.3333C4 9.78107 4.44771 9.33333 5 9.33333C5.55229 9.33333 6 9.78107 6 10.3333C6 10.8856 5.55229 11.3333 5 11.3333ZM11 11.3333C10.4477 11.3333 10 10.8856 10 10.3333C10 9.78107 10.4477 9.33333 11 9.33333C11.5523 9.33333 12 9.78107 12 10.3333C12 10.8856 11.5523 11.3333 11 11.3333Z" fill="black"/>
</svg>
