<svg width="24" height="22" viewBox="0 0 24 22" fill="none" xmlns="http://www.w3.org/2000/svg">
<g clip-path="url(#clip0_1174_22927)">
<path d="M13.74 19.83H2.52998L7.82998 8.6L11.68 15.67L13.4 14.73L10.24 8.92L12.98 3.19L17.34 11.78C17.92 11.48 18.55 11.27 19.22 11.14L13.83 0.54C13.66 0.21 13.31 0.02 12.94 0C12.57 0 12.23 0.22 12.07 0.56L9.08998 6.8L8.63998 5.97C8.45998 5.65 8.10998 5.46 7.74998 5.46C7.37998 5.47 7.04998 5.69 6.88998 6.02L0.0899829 20.39C-0.0500171 20.69 -0.0300171 21.05 0.149983 21.33C0.329983 21.61 0.639983 21.79 0.979983 21.79H14.6C14.22 21.19 13.93 20.53 13.74 19.83Z" fill="white"/>
<path d="M16.48 13.69V15.23H21.39L15.83 20.78L15.76 20.85L16.84 21.94L22.47 16.31V21.22H24V13.69H16.48Z" fill="white"/>
</g>
<defs>
<clipPath id="clip0_1174_22927">
<rect width="24" height="21.94" fill="white"/>
</clipPath>
</defs>
</svg>