<svg width="18" height="20" viewBox="0 0 18 20" fill="none" xmlns="http://www.w3.org/2000/svg">
<g clip-path="url(#clip0_1174_22932)">
<path d="M8 9.9V15C8 15.55 8.45 16 9 16C9.55 16 10 15.55 10 15V9.9C12.71 9.35 14.45 6.71 13.9 4C13.35 1.3 10.71 -0.450004 8 0.0999962C5.29 0.649996 3.55 3.29 4.1 6C4.5 7.96 6.04 9.5 8 9.9ZM9 2C10.66 2 12 3.34 12 5C12 6.66 10.66 8 9 8C7.34 8 6 6.66 6 5C6 3.34 7.34 2 9 2ZM13.21 12.42C12.66 12.3 12.12 12.66 12 13.21C11.88 13.76 12.24 14.3 12.79 14.42C15.06 14.87 16 15.68 16 16C16 16.58 13.55 18 9 18C4.45 18 2 16.58 2 16C2 15.68 2.94 14.87 5.21 14.38C5.76 14.26 6.12 13.72 6 13.17C5.88 12.62 5.34 12.26 4.79 12.38C1.75 13.08 0 14.39 0 16C0 18.63 4.53 20 9 20C13.47 20 18 18.63 18 16C18 14.39 16.25 13.08 13.21 12.42Z" fill="#F5F5F5"/>
</g>
<defs>
<clipPath id="clip0_1174_22932">
<rect width="18" height="20" fill="white"/>
</clipPath>
</defs>
</svg>