<svg width="22" height="22" viewBox="0 0 22 22" fill="none" xmlns="http://www.w3.org/2000/svg">
<path fill-rule="evenodd" clip-rule="evenodd" d="M12.1211 4.22202L17.7781 9.87902L17.0711 16.243C10.9431 17.657 7.2891 18.718 3.9901 21.546L2.5951 20.15C6.3171 16.819 10.5901 15.822 15.2381 14.63L15.6841 10.612L11.3871 6.31502L7.3691 6.76102C6.1771 11.409 5.1801 15.681 1.8491 19.404L0.454102 18.01C3.2821 14.71 4.3441 11.057 5.7571 4.92902L12.1211 4.22202ZM10.7071 11.292C11.4543 12.0782 11.4387 13.3167 10.6719 14.0838C9.90504 14.8509 8.66656 14.8669 7.8801 14.12H7.8791C7.35919 13.6179 7.15068 12.8743 7.33371 12.175C7.51674 11.4757 8.06283 10.9297 8.76209 10.7466C9.46135 10.5636 10.205 10.7721 10.7071 11.292ZM14.5961 1.04002L20.9431 7.38602C21.0765 7.51917 21.1236 7.71599 21.0651 7.89512C21.0066 8.07426 20.8523 8.20528 20.6661 8.23402L19.1921 8.46402L13.5361 2.80802L13.7481 1.32302C13.775 1.13574 13.9053 0.979666 14.0847 0.919771C14.2642 0.859876 14.4621 0.906416 14.5961 1.04002Z" fill="#000091"/>
</svg>
