<svg width="23" height="16" viewBox="0 0 23 16" fill="none" xmlns="http://www.w3.org/2000/svg">
<path d="M11.2461 11H4.7541L2.7541 16H0.600098L7.0001 0H9.0001L15.4001 16H13.2461L11.2461 11ZM10.4461 9L8.0001 2.885L5.5541 9H10.4461ZM21.0001 8.535V8H23.0001V16H21.0001V15.465C20.392 15.8157 19.7023 16.0002 19.0003 16C18.2983 15.9998 17.6087 15.8148 17.0009 15.4637C16.393 15.1125 15.8883 14.6076 15.5373 13.9996C15.1864 13.3916 15.0017 12.702 15.0017 12C15.0017 11.298 15.1864 10.6084 15.5373 10.0004C15.8883 9.3924 16.393 8.88748 17.0009 8.53635C17.6087 8.18521 18.2983 8.00024 19.0003 8C19.7023 7.99976 20.392 8.18428 21.0001 8.535ZM19.0001 14C19.5305 14 20.0392 13.7893 20.4143 13.4142C20.7894 13.0391 21.0001 12.5304 21.0001 12C21.0001 11.4696 20.7894 10.9609 20.4143 10.5858C20.0392 10.2107 19.5305 10 19.0001 10C18.4697 10 17.961 10.2107 17.5859 10.5858C17.2108 10.9609 17.0001 11.4696 17.0001 12C17.0001 12.5304 17.2108 13.0391 17.5859 13.4142C17.961 13.7893 18.4697 14 19.0001 14Z" fill="#000091"/>
</svg>
