<?xml version="1.0" encoding="UTF-8" standalone="no"?>
<!-- Created with Inkscape (http://www.inkscape.org/) -->

<svg
   width="4.7624998mm"
   height="4.7625003mm"
   viewBox="0 0 4.7624998 4.7625003"
   version="1.1"
   id="svg1"
   xml:space="preserve"
   inkscape:version="1.3 (1:1.3+202307231459+0e150ed6c4)"
   sodipodi:docname="icons.svg"
   xmlns:inkscape="http://www.inkscape.org/namespaces/inkscape"
   xmlns:sodipodi="http://sodipodi.sourceforge.net/DTD/sodipodi-0.dtd"
   xmlns="http://www.w3.org/2000/svg"
   xmlns:svg="http://www.w3.org/2000/svg"><sodipodi:namedview
     id="namedview1"
     pagecolor="#ffffff"
     bordercolor="#666666"
     borderopacity="1.0"
     inkscape:showpageshadow="2"
     inkscape:pageopacity="0.0"
     inkscape:pagecheckerboard="0"
     inkscape:deskcolor="#d1d1d1"
     inkscape:document-units="mm"
     inkscape:export-bgcolor="#ffffff00"
     inkscape:zoom="8.1107392"
     inkscape:cx="399.59366"
     inkscape:cy="903.925"
     inkscape:window-width="840"
     inkscape:window-height="1013"
     inkscape:window-x="4680"
     inkscape:window-y="0"
     inkscape:window-maximized="0"
     inkscape:current-layer="layer1" /><defs
     id="defs1" /><g
     inkscape:label="Calque 1"
     inkscape:groupmode="layer"
     id="layer1"
     transform="translate(-102.08958,-156.7021)"><path
       d="m 104.47083,161.46459 c -1.31513,0 -2.38125,-1.06627 -2.38125,-2.38125 0,-1.31498 1.06612,-2.38125 2.38125,-2.38125 1.31511,0 2.38125,1.06627 2.38125,2.38125 0,1.31498 -1.06614,2.38125 -2.38125,2.38125 z m 0,-0.47625 c 1.05212,0 1.905,-0.85196 1.905,-1.905 0,-1.05304 -0.85288,-1.905 -1.905,-1.905 -1.05211,0 -1.905,0.85196 -1.905,1.905 0,1.05304 0.85289,1.905 1.905,1.905 z m -0.23812,-1.19063 h 0.47625 v 0.47625 h -0.47625 z m 0.47625,-0.39158 v 0.15346 h -0.47625 v -0.35719 c 0,-0.13229 0.1066,-0.23812 0.23812,-0.23812 0.19728,0 0.35719,-0.15875 0.35719,-0.35719 0,-0.19844 -0.15991,-0.35719 -0.35719,-0.35719 -0.17327,0 -0.31776,0.12436 -0.35033,0.2884 l -0.46707,-0.0952 c 0.076,-0.381 0.41307,-0.6694 0.8174,-0.6694 0.4603,0 0.83344,0.37306 0.83344,0.83344 0,0.37835 -0.25106,0.69585 -0.59531,0.79904 z"
       fill="#000091"
       id="path139"
       style="fill:#ffffff;stroke-width:0.264583" /></g></svg>
