<svg width="24" height="28" viewBox="0 0 24 28" fill="none" xmlns="http://www.w3.org/2000/svg">
<path d="M6.75 1.01001H4.81L3.43 3.06001L2.05 1.01001H0.13L2.36 4.26001L0 7.69001H1.93L3.43 5.45001L4.95 7.69001H6.87L4.51 4.26001L6.75 1.01001Z" fill="white"/>
<path d="M12.7402 1.01L10.9002 5.51L9.07019 1.01H7.2002L10.0102 7.68L9.6402 8.57C9.3602 9.25 8.9502 9.47 8.2902 9.47C8.0002 9.47 7.6802 9.4 7.4702 9.31V10.79C7.7902 10.92 8.15019 11 8.66019 11C9.93019 11 10.6902 10.31 11.1502 9.21L14.5202 1H12.7402V1.01Z" fill="white"/>
<path d="M4.08755 11.018L2.08763 11C2.04303 15.9598 5.68601 20.0927 10.4497 20.8156C10.1859 20.1232 10.0124 19.4016 9.93897 18.6709C6.54684 17.7803 4.05464 14.6778 4.08755 11.018Z" fill="white"/>
<path d="M23.8808 20.02C24.1108 18.88 23.9908 17.7 23.5408 16.63C23.0908 15.56 22.3208 14.64 21.3308 13.99C20.3408 13.34 19.1808 13 18.0008 13C16.8208 13 15.6508 13.34 14.6708 13.99C13.6808 14.64 12.9108 15.55 12.4608 16.63C12.0008 17.7 11.8808 18.88 12.1208 20.02C12.3508 21.16 12.9208 22.21 13.7608 23.03L18.0008 27.18L22.2408 23.03C23.0808 22.21 23.6508 21.16 23.8808 20.02ZM21.9208 19.64C21.7708 20.4 21.3808 21.1 20.8308 21.65L18.0008 24.42L15.1708 21.65C14.6108 21.1 14.2308 20.4 14.0708 19.64C13.9208 18.88 13.9908 18.09 14.3008 17.38C14.6008 16.66 15.1208 16.05 15.7708 15.62C16.4208 15.19 17.2008 14.96 17.9908 14.96C18.7808 14.96 19.5508 15.19 20.2108 15.62C20.8708 16.05 21.3808 16.66 21.6808 17.38C21.9808 18.1 22.0608 18.88 21.9108 19.64H21.9208Z" fill="white"/>
<path d="M18.0008 17.28C17.3508 17.28 16.8308 17.81 16.8308 18.45C16.8308 19.09 17.3608 19.62 18.0008 19.62C18.6408 19.62 19.1708 19.09 19.1708 18.45C19.1708 17.81 18.6408 17.28 18.0008 17.28Z" fill="white"/>
</svg>
