<?xml version="1.0" encoding="UTF-8" standalone="no"?>
<!-- Created with Inkscape (http://www.inkscape.org/) -->

<svg
   width="4.6382422mm"
   height="3.0691602mm"
   viewBox="0 0 4.6382422 3.0691602"
   version="1.1"
   id="svg1"
   xml:space="preserve"
   inkscape:version="1.3 (1:1.3+202307231459+0e150ed6c4)"
   sodipodi:docname="icons.svg"
   xmlns:inkscape="http://www.inkscape.org/namespaces/inkscape"
   xmlns:sodipodi="http://sodipodi.sourceforge.net/DTD/sodipodi-0.dtd"
   xmlns="http://www.w3.org/2000/svg"
   xmlns:svg="http://www.w3.org/2000/svg"><sodipodi:namedview
     id="namedview1"
     pagecolor="#ffffff"
     bordercolor="#666666"
     borderopacity="1.0"
     inkscape:showpageshadow="2"
     inkscape:pageopacity="0.0"
     inkscape:pagecheckerboard="0"
     inkscape:deskcolor="#d1d1d1"
     inkscape:document-units="mm"
     inkscape:export-bgcolor="#ffffff00"
     inkscape:zoom="4.0553696"
     inkscape:cx="372.9623"
     inkscape:cy="1248.5915"
     inkscape:window-width="1680"
     inkscape:window-height="1013"
     inkscape:window-x="3840"
     inkscape:window-y="0"
     inkscape:window-maximized="1"
     inkscape:current-layer="layer1" /><defs
     id="defs1" /><g
     inkscape:label="Calque 1"
     inkscape:groupmode="layer"
     id="layer1"
     transform="translate(-102.15573,-390.39534)"><g
       id="g2"><path
         d="m 102.35417,391.13879 c 0.52993,0 0.52993,-0.54504 1.05989,-0.54504 0.52993,0 0.52993,0.54504 1.0599,0.54504 0.52993,0 0.52993,-0.54504 1.06079,-0.54504 0.53086,0 0.52993,0.54504 1.06079,0.54504"
         stroke="#ffffff"
         stroke-width="0.396875"
         stroke-miterlimit="10"
         stroke-linecap="round"
         id="path172"
         style="fill:none" /><path
         d="m 102.35417,392.20242 c 0.52993,0 0.52993,-0.54504 1.05989,-0.54504 0.52993,0 0.52993,0.54504 1.0599,0.54504 0.52993,0 0.52993,-0.54504 1.06079,-0.54504 0.53086,0 0.52993,0.54504 1.06079,0.54504"
         stroke="#ffffff"
         stroke-width="0.396875"
         stroke-miterlimit="10"
         stroke-linecap="round"
         id="path173"
         style="fill:none" /><path
         d="m 102.35417,393.26604 c 0.52993,0 0.52993,-0.54504 1.05989,-0.54504 0.52993,0 0.52993,0.54504 1.0599,0.54504 0.52993,0 0.52993,-0.54504 1.06079,-0.54504 0.53086,0 0.52993,0.54504 1.06079,0.54504"
         stroke="#ffffff"
         stroke-width="0.396875"
         stroke-miterlimit="10"
         stroke-linecap="round"
         id="path174"
         style="fill:none" /></g></g></svg>
