<svg width="22" height="24" viewBox="0 0 22 24" fill="none" xmlns="http://www.w3.org/2000/svg">
<path d="M7.39995 15.33V2.43L12.09 4.78V11.83H14.08V4.72L18 3.04V3.23H17.99V11.83H19.99V0.76C19.99 0.68 19.98 0.6 19.94 0.52C19.9 0.45 19.84 0.38 19.77 0.34C19.7 0.3 19.62 0.27 19.54 0.26C19.46 0.26 19.37 0.26 19.3 0.3L13 3L7.00995 0L0.00995442 3V19.61C-4.55808e-05 19.69 0.00995442 19.77 0.0599544 19.85C0.0999544 19.92 0.159954 19.99 0.219954 20.03C0.279954 20.07 0.369954 20.1 0.449954 20.11C0.529954 20.11 0.619954 20.11 0.689954 20.07L6.98995 17.37L7.38995 17.19V15.33H7.39995ZM5.40995 15.87L1.99995 17.33V17.14H2.00995V4.32L5.40995 2.86V15.87Z" fill="white"/>
<path d="M21.4222 18.5953L13.6339 13.0711C13.3622 12.8899 13 13.0711 13 13.4333L13.9056 22.9422C13.9056 23.3044 14.449 23.395 14.6301 23.1233L16.0791 20.5876L17.528 23.1233C17.7092 23.4855 18.162 23.6667 18.5242 23.6667C18.7053 23.6667 18.8865 23.5761 19.0676 23.4855C19.6109 23.1233 19.7921 22.4894 19.5204 21.946L18.0714 19.4103H21.0599C21.5127 19.3197 21.6938 18.8669 21.4222 18.5953Z" fill="white"/>
</svg>
